<mxfile host="app.diagrams.net" agent="Mozilla/5.0 (X11; Linux x86_64) AppleWebKit/537.36 (KHTML, like Gecko) Chrome/126.0.0.0 Safari/537.36" version="26.0.16">
  <diagram name="Page-1" id="MGggMeB-tMjyYr9E1ffG">
    <mxGraphModel dx="878" dy="424" grid="1" gridSize="10" guides="1" tooltips="1" connect="1" arrows="1" fold="1" page="1" pageScale="1" pageWidth="827" pageHeight="1169" math="0" shadow="0">
      <root>
        <mxCell id="0" />
        <mxCell id="1" parent="0" />
        <mxCell id="MFZoCQYq9G5J1EdMz0Ry-3" value="&lt;ul&gt;&lt;li&gt;task completed&lt;/li&gt;&lt;li&gt;task id&lt;/li&gt;&lt;li&gt;task text&lt;/li&gt;&lt;/ul&gt;" style="whiteSpace=wrap;html=1;aspect=fixed;align=left;fillColor=#dae8fc;strokeColor=#6c8ebf;" parent="1" vertex="1">
          <mxGeometry x="20" y="140" width="120" height="120" as="geometry" />
        </mxCell>
        <mxCell id="MFZoCQYq9G5J1EdMz0Ry-26" value="" style="edgeStyle=orthogonalEdgeStyle;rounded=0;orthogonalLoop=1;jettySize=auto;html=1;" parent="1" source="MFZoCQYq9G5J1EdMz0Ry-4" target="MFZoCQYq9G5J1EdMz0Ry-25" edge="1">
          <mxGeometry relative="1" as="geometry" />
        </mxCell>
        <mxCell id="MFZoCQYq9G5J1EdMz0Ry-27" value="How" style="edgeLabel;html=1;align=center;verticalAlign=middle;resizable=0;points=[];" parent="MFZoCQYq9G5J1EdMz0Ry-26" vertex="1" connectable="0">
          <mxGeometry x="-0.0889" y="1" relative="1" as="geometry">
            <mxPoint as="offset" />
          </mxGeometry>
        </mxCell>
        <mxCell id="MFZoCQYq9G5J1EdMz0Ry-4" value="In task list&amp;nbsp;&lt;div&gt;add&amp;nbsp;&lt;/div&gt;&lt;div&gt;sessions&lt;/div&gt;" style="whiteSpace=wrap;html=1;aspect=fixed;" parent="1" vertex="1">
          <mxGeometry x="40" y="320" width="80" height="80" as="geometry" />
        </mxCell>
        <mxCell id="MFZoCQYq9G5J1EdMz0Ry-24" value="" style="edgeStyle=orthogonalEdgeStyle;rounded=0;orthogonalLoop=1;jettySize=auto;html=1;" parent="1" source="MFZoCQYq9G5J1EdMz0Ry-10" target="MFZoCQYq9G5J1EdMz0Ry-23" edge="1">
          <mxGeometry relative="1" as="geometry" />
        </mxCell>
        <mxCell id="MFZoCQYq9G5J1EdMz0Ry-10" value="sessions" style="whiteSpace=wrap;html=1;aspect=fixed;" parent="1" vertex="1">
          <mxGeometry x="380" y="200" width="80" height="80" as="geometry" />
        </mxCell>
        <mxCell id="MFZoCQYq9G5J1EdMz0Ry-18" value="" style="edgeStyle=orthogonalEdgeStyle;rounded=0;orthogonalLoop=1;jettySize=auto;html=1;" parent="1" source="MFZoCQYq9G5J1EdMz0Ry-15" target="MFZoCQYq9G5J1EdMz0Ry-10" edge="1">
          <mxGeometry relative="1" as="geometry" />
        </mxCell>
        <mxCell id="MFZoCQYq9G5J1EdMz0Ry-15" value="&lt;span style=&quot;text-wrap: nowrap; font-size: 11px; background-color: rgb(255, 255, 255);&quot;&gt;add&amp;nbsp;&lt;/span&gt;&lt;span style=&quot;color: light-dark(rgb(0, 0, 0), rgb(255, 255, 255)); text-wrap: nowrap; background-color: rgb(255, 255, 255); font-size: 11px;&quot;&gt;total&lt;/span&gt;&lt;div&gt;&lt;span style=&quot;background-color: rgb(255, 255, 255); font-size: 11px; text-wrap: nowrap; color: light-dark(rgb(0, 0, 0), rgb(255, 255, 255));&quot;&gt;time&lt;/span&gt;&lt;/div&gt;&lt;div&gt;&lt;span style=&quot;background-color: rgb(255, 255, 255); font-size: 11px; text-wrap: nowrap; color: light-dark(rgb(0, 0, 0), rgb(255, 255, 255));&quot;&gt;on session&lt;/span&gt;&lt;/div&gt;" style="ellipse;shape=cloud;whiteSpace=wrap;html=1;" parent="1" vertex="1">
          <mxGeometry x="360" y="310" width="120" height="80" as="geometry" />
        </mxCell>
        <mxCell id="MFZoCQYq9G5J1EdMz0Ry-22" value="" style="edgeStyle=orthogonalEdgeStyle;rounded=0;orthogonalLoop=1;jettySize=auto;html=1;" parent="1" source="MFZoCQYq9G5J1EdMz0Ry-19" target="MFZoCQYq9G5J1EdMz0Ry-10" edge="1">
          <mxGeometry relative="1" as="geometry" />
        </mxCell>
        <mxCell id="MFZoCQYq9G5J1EdMz0Ry-19" value="custum timmer" style="whiteSpace=wrap;html=1;aspect=fixed;" parent="1" vertex="1">
          <mxGeometry x="250" y="200" width="80" height="80" as="geometry" />
        </mxCell>
        <mxCell id="MFZoCQYq9G5J1EdMz0Ry-23" value="CRUD on&lt;div&gt;session using ID&lt;/div&gt;" style="rhombus;whiteSpace=wrap;html=1;" parent="1" vertex="1">
          <mxGeometry x="500" y="180" width="120" height="120" as="geometry" />
        </mxCell>
        <mxCell id="MFZoCQYq9G5J1EdMz0Ry-25" value="{ id, text, completed, sessions }" style="whiteSpace=wrap;html=1;" parent="1" vertex="1">
          <mxGeometry x="20" y="490" width="120" height="60" as="geometry" />
        </mxCell>
        <mxCell id="MFZoCQYq9G5J1EdMz0Ry-28" value="" style="rhombus;whiteSpace=wrap;html=1;" parent="1" vertex="1">
          <mxGeometry x="190" y="490" width="80" height="80" as="geometry" />
        </mxCell>
      </root>
    </mxGraphModel>
  </diagram>
</mxfile>
